<?xml version="1.0" encoding="utf-8"?>
<!-- Generator: Adobe Illustrator 21.0.2, SVG Export Plug-In . SVG Version: 6.00 Build 0)  -->
<svg version="1.1" id="Layer_1" xmlns="http://www.w3.org/2000/svg" xmlns:xlink="http://www.w3.org/1999/xlink" x="0px" y="0px"
	 viewBox="-42 -8.7 56.7 56.7" style="enable-background:new -42 -8.7 56.7 56.7;" xml:space="preserve">
<style type="text/css">
	.st0{fill:#FFFFFF;}
</style>
<g>
	<path class="st0" d="M10.2,17.2H2.7V9.6c0-0.6-0.5-1-1-1h-2.1c-0.6,0-1,0.5-1,1v7.5H-9c-0.6,0-1,0.5-1,1v2.1c0,0.6,0.5,1,1,1h7.5
		v7.5c0,0.6,0.5,1,1,1h2.1c0.6,0,1-0.5,1-1v-7.5h7.5c0.6,0,1-0.5,1-1v-2.1C11.3,17.6,10.8,17.2,10.2,17.2z"/>
	<path class="st0" d="M-15,23.7c-1.6-1.1-3-2.8-3-3.3c0-0.9,0.1-1.4,2.1-3c2.7-2.1,4.1-4.8,4.1-7.7c0-2.6-0.8-5-2.2-6.6h1.1
		c0.2,0,0.4-0.1,0.6-0.2l3-2.1C-9,0.6-8.8,0.1-9-0.3C-9.1-0.7-9.5-1-9.9-1h-13.2c-1.4,0-2.9,0.3-4.4,0.8c-4.8,1.7-8.2,5.8-8.2,10
		c0,6,4.6,10.5,10.8,10.6c-0.1,0.5-0.2,0.9-0.2,1.4c0,0.9,0.2,1.8,0.7,2.6c-0.1,0-0.1,0-0.2,0c-5.9,0-11.2,2.9-13.2,7.2
		c-0.5,1.1-0.8,2.3-0.8,3.4c0,1.1,0.3,2.1,0.8,3.1c1.3,2.3,4,4,7.7,5c1.9,0.5,3.9,0.7,6.1,0.7c1.9,0,3.7-0.2,5.4-0.7
		c5.2-1.5,8.6-5.4,8.6-9.8C-10,28.9-11.3,26.4-15,23.7z M-31.7,33.5c0-3.1,3.9-5.8,8.4-5.8h0.1c1,0,1.9,0.2,2.8,0.4
		c0.3,0.2,0.6,0.4,0.9,0.6c2.1,1.4,3.5,2.4,3.8,3.9c0.1,0.4,0.1,0.8,0.1,1.1c0,3.9-2.9,5.8-8.6,5.8C-28.3,39.5-31.7,36.9-31.7,33.5z
		 M-27.6,4.2c0.7-0.8,1.6-1.2,2.7-1.2l0.1,0c2.9,0.1,5.7,3.3,6.2,7.3c0.3,2.2-0.2,4.3-1.3,5.5c-0.7,0.8-1.6,1.2-2.7,1.2c0,0,0,0,0,0
		h0c-2.9-0.1-5.7-3.5-6.2-7.4C-29.2,7.4-28.7,5.4-27.6,4.2z"/>
</g>
</svg>
